<svg width="16" height="18" viewBox="0 0 16 18" fill="none" xmlns="http://www.w3.org/2000/svg">
<path d="M6.33325 10.6666H9.66658V16.5H6.33325V10.6666Z" fill="#5E5E61"/>
<path d="M15.0166 7.48333L8.59164 0.916665C8.51417 0.838558 8.422 0.776562 8.32045 0.734255C8.2189 0.691948 8.10998 0.670166 7.99997 0.670166C7.88996 0.670166 7.78104 0.691948 7.67949 0.734255C7.57794 0.776562 7.48577 0.838558 7.40831 0.916665L0.983307 7.49166C0.827838 7.64839 0.705053 7.83444 0.622081 8.039C0.539109 8.24357 0.497603 8.46259 0.499974 8.68333V15.6667C0.499328 16.0933 0.662285 16.5039 0.955286 16.8139C1.24829 17.124 1.64902 17.3099 2.07497 17.3333H4.66664V9.83333C4.66664 9.61232 4.75444 9.40036 4.91072 9.24408C5.067 9.0878 5.27896 9 5.49997 9H10.5C10.721 9 10.9329 9.0878 11.0892 9.24408C11.2455 9.40036 11.3333 9.61232 11.3333 9.83333V17.3333H13.925C14.3509 17.3099 14.7517 17.124 15.0447 16.8139C15.3377 16.5039 15.5006 16.0933 15.5 15.6667V8.68333C15.5006 8.23578 15.3273 7.80548 15.0166 7.48333Z" fill="#5E5E61"/>
</svg>
