<svg width="21" height="18" viewBox="0 0 21 18" fill="none" xmlns="http://www.w3.org/2000/svg">
<path d="M3.00003 10.1803V12.9903C3.00003 13.7203 3.40003 14.4003 4.04003 14.7503L9.04003 17.4803C9.64003 17.8103 10.36 17.8103 10.96 17.4803L15.96 14.7503C16.6 14.4003 17 13.7203 17 12.9903V10.1803L10.96 13.4803C10.36 13.8103 9.64003 13.8103 9.04003 13.4803L3.00003 10.1803ZM9.04003 0.520273L0.610029 5.12027C-0.0799707 5.50027 -0.0799707 6.50027 0.610029 6.88027L9.04003 11.4803C9.64003 11.8103 10.36 11.8103 10.96 11.4803L19 7.09027V13.0003C19 13.5503 19.45 14.0003 20 14.0003C20.55 14.0003 21 13.5503 21 13.0003V6.59027C21 6.22027 20.8 5.89027 20.48 5.71027L10.96 0.520273C10.6646 0.362698 10.3349 0.280273 10 0.280273C9.66518 0.280273 9.33548 0.362698 9.04003 0.520273Z" fill="#979797"/>
</svg>
