<svg width="21" height="14" viewBox="0 0 21 14" fill="none" xmlns="http://www.w3.org/2000/svg">
<path d="M14.5843 7.55144C14.7375 7.55144 14.8906 7.50038 15.0098 7.38126L17.3923 4.99877C17.6305 4.76052 17.6305 4.38612 17.3923 4.16489C17.154 3.92664 16.7796 3.92664 16.5584 4.16489L14.5843 6.12194L13.8015 5.33912C13.5633 5.10087 13.1889 5.10087 12.9676 5.33912C12.7294 5.57737 12.7294 5.95176 12.9676 6.173L14.1589 7.36424C14.278 7.50039 14.4312 7.55144 14.5843 7.55144Z" fill="#5E5E61"/>
<path d="M11.487 4.55627C10.8574 1.62921 8.06644 -0.327838 5.10534 0.0465541C2.16126 0.420946 0.0340356 2.99064 0.0850891 5.84963C0.0850891 6.1049 0.0170178 11.4995 0 13.2864C0 13.5247 0.255267 13.6608 0.459481 13.5247L3.82901 11.1592C4.79902 11.5166 5.83711 11.6187 6.85818 11.4485C10.0575 10.8869 12.1848 7.75562 11.487 4.55627ZM6.2115 8.38528C6.12641 8.48739 5.99027 8.53844 5.85413 8.53844C5.58184 8.53844 5.36061 8.31721 5.36061 8.04493C5.36061 7.77264 5.58184 7.55141 5.85413 7.55141C6.14343 7.55141 6.36466 7.75562 6.36466 8.02791C6.34765 8.16405 6.31361 8.30019 6.2115 8.38528ZM6.75607 5.57734L6.58589 5.71349C6.43273 5.84963 6.27957 5.98577 6.26256 6.207C6.24554 6.37718 6.24554 6.54736 6.24554 6.73456C6.24554 6.76859 6.24554 6.80263 6.22852 6.81964C6.22852 6.81964 6.2115 6.83666 6.14343 6.83666C6.1094 6.83666 6.05834 6.83666 6.02431 6.83666H5.82009C5.70097 6.83666 5.56483 6.83666 5.4457 6.83666C5.39465 6.83666 5.37763 6.81964 5.37763 6.76859C5.36061 6.3942 5.37763 5.96875 5.51377 5.66243C5.61588 5.4412 5.80307 5.28804 5.99027 5.1519C6.14343 5.04979 6.27957 4.93067 6.3987 4.77751C6.60291 4.4882 6.56888 4.26697 6.50081 4.13083C6.38168 3.9096 6.12641 3.77345 5.83711 3.77345C5.46272 3.77345 5.17342 3.99469 5.05429 4.36908C5.02026 4.4882 5.00324 4.50522 4.95218 4.50522C4.91815 4.50522 4.90113 4.50522 4.85008 4.50522C4.64586 4.47119 4.44165 4.45417 4.22042 4.42013C4.15235 4.42013 4.13533 4.3861 4.13533 4.33504C4.22042 3.45012 5.07131 2.99064 5.87115 2.99064C6.33063 2.99064 6.77309 3.1438 7.07941 3.39906C7.36871 3.65433 7.53889 3.99469 7.53889 4.35206C7.53889 4.8626 7.13046 5.23699 6.75607 5.57734Z" fill="#5E5E61"/>
<path d="M20.9149 5.84972C20.966 2.99072 18.8557 0.421033 15.8776 0.0466407C14.1418 -0.174591 12.457 0.404015 11.2488 1.51017C11.487 1.79948 11.6912 2.12281 11.8784 2.44615C12.8655 1.47614 14.278 0.948585 15.7415 1.13578C18.0899 1.4421 19.8428 3.4502 19.8087 5.8327C19.8087 6.03691 19.8428 9.28731 19.8768 11.6868L17.3412 9.91697L16.7966 10.1212C16.0308 10.4105 15.1799 10.4956 14.346 10.3424C13.393 10.1893 12.5421 9.74679 11.8784 9.0831C11.7763 9.25328 11.6742 9.42346 11.5551 9.59363C11.453 9.72978 11.3509 9.88294 11.2488 10.0191C12.0316 10.7338 13.0186 11.2444 14.1418 11.4486C15.1629 11.6188 16.201 11.5337 17.171 11.1593L20.5405 13.5247C20.7277 13.6609 21 13.5247 21 13.2865C20.983 11.4996 20.9149 6.10498 20.9149 5.84972Z" fill="#5E5E61"/>
</svg>
