<svg width="110" height="39" viewBox="0 0 110 39" fill="none" xmlns="http://www.w3.org/2000/svg">
<g clip-path="url(#clip0)">
<path d="M32.9178 26.3719V11.8926H39.482C41.1806 11.8926 42.472 12.3727 43.3562 13.333C44.1297 14.1578 44.5165 15.2255 44.5165 16.5362C44.5165 17.8468 44.1297 18.9145 43.3562 19.7393C42.4727 20.6996 41.1813 21.1797 39.482 21.1797H36.1179V26.3699L32.9178 26.3719ZM36.1179 14.368V18.7053H38.6065C39.4746 18.7053 40.1263 18.5778 40.5617 18.3229C41.1333 17.9712 41.4191 17.376 41.4191 16.5372C41.4191 15.6983 41.1333 15.1031 40.5617 14.7514C40.127 14.4971 39.4749 14.368 38.6065 14.368H36.1179Z" fill="#002159"/>
<path d="M45.7415 26.3706V15.8862H48.4937V17.8352H48.5339C48.8027 17.1743 49.2733 16.6141 49.8794 16.2336C50.4745 15.8293 51.1774 15.6108 51.898 15.606C52.113 15.6059 52.3266 15.6397 52.531 15.7061V18.3827C52.1887 18.3106 51.8393 18.277 51.4895 18.2826C49.5875 18.2826 48.6363 19.404 48.6356 21.6469V26.3726L45.7415 26.3706Z" fill="#002159"/>
<path d="M53.2433 21.1414C53.2433 19.4658 53.7397 18.1238 54.7326 17.1155C55.7255 16.1071 57.0438 15.604 58.6874 15.606C60.3458 15.606 61.6711 16.1091 62.6633 17.1155C63.6555 18.1218 64.1513 19.4638 64.1506 21.1414C64.1506 22.8051 63.6548 24.1397 62.6633 25.1454C61.6718 26.151 60.3465 26.6545 58.6874 26.6559C57.0418 26.6559 55.7235 26.1527 54.7326 25.1464C53.7417 24.14 53.2453 22.8051 53.2433 21.1414ZM56.1384 21.1414C56.1384 22.101 56.3219 22.8648 56.6889 23.4327C57.1243 24.1354 57.7904 24.4867 58.6874 24.4867C60.3988 24.4867 61.2548 23.3716 61.2555 21.1414C61.2555 18.8972 60.3995 17.7748 58.6874 17.7741C56.9888 17.7741 56.1391 18.8965 56.1384 21.1414Z" fill="#002159"/>
<path d="M65.6588 26.3719V11.8926H71.9371C73.9075 11.8926 75.4773 12.4878 76.6466 13.6783C77.9105 14.9336 78.5428 16.7243 78.5435 19.0506C78.5435 21.2408 77.9998 22.9845 76.9123 24.2818C75.743 25.6752 74.0846 26.3719 71.9371 26.3719H65.6588ZM68.8589 14.5692V23.6952H71.7127C72.7459 23.6952 73.5818 23.3709 74.2204 22.7223C74.9691 21.9662 75.3431 20.8437 75.3425 19.3549C75.3425 17.8014 75.0432 16.6393 74.4448 15.8685C73.7646 15.001 72.6637 14.5672 71.1422 14.5672L68.8589 14.5692Z" fill="#002159"/>
<path d="M89.7783 21.8321H82.1737C82.2549 23.6018 83.1176 24.4867 84.7619 24.4867C85.2988 24.4936 85.8251 24.3383 86.2714 24.0413C86.693 23.784 86.9496 23.4797 87.0462 23.1284H89.5942C88.8193 25.4814 87.1757 26.6572 84.6633 26.6558C83.0183 26.6558 81.7101 26.1463 80.7387 25.1273C79.7673 24.1083 79.2806 22.7797 79.2786 21.1414C79.2786 19.5472 79.778 18.2259 80.7769 17.1775C81.7759 16.1291 83.0706 15.6053 84.6613 15.606C86.3733 15.606 87.6983 16.2399 88.6362 17.5078C89.5056 18.6743 89.8863 20.1157 89.7783 21.8321ZM82.1737 20.0053H86.8822C86.6105 18.5178 85.8427 17.7741 84.5788 17.7741C83.7636 17.7741 83.1384 18.045 82.703 18.5869C82.3772 18.9904 82.1915 19.488 82.1737 20.0053Z" fill="#002159"/>
<path d="M100.215 15.8862L96.6472 26.3706H93.427L89.8174 15.8862H92.8544L95.0773 23.0443H95.1186L97.3405 15.8862H100.215Z" fill="#002159"/>
<path d="M100.236 22.9652H102.988C103.002 23.5611 103.233 24.0139 103.682 24.3236C104.075 24.5965 104.585 24.7326 105.21 24.732C105.649 24.746 106.085 24.6474 106.475 24.4457C106.895 24.2044 107.106 23.8531 107.106 23.3916C107.106 22.9912 106.82 22.6609 106.25 22.4187C105.842 22.2438 105.033 22.0273 103.823 21.769C102.791 21.5528 102.023 21.2692 101.52 20.9182C100.828 20.4577 100.48 19.8111 100.48 18.9703C100.48 16.7261 102.009 15.6046 105.067 15.606C107.975 15.606 109.525 16.7211 109.715 18.9513H106.964C106.895 18.0033 106.237 17.5329 104.986 17.5329C103.912 17.5329 103.376 17.8568 103.376 18.5048C103.376 18.9513 103.715 19.2956 104.395 19.5378C104.478 19.5659 105.232 19.7417 106.659 20.0654C107.704 20.3096 108.472 20.6076 108.962 20.9592C109.656 21.4457 110.002 22.1277 110.001 23.0053C110.001 24.2765 109.498 25.2298 108.492 25.8651C107.662 26.3916 106.561 26.6552 105.188 26.6559C103.815 26.6565 102.701 26.3866 101.845 25.8461C100.827 25.2114 100.291 24.2511 100.236 22.9652Z" fill="#002159"/>
<path d="M18.6535 20.6326C18.6527 20.7378 18.6754 20.8418 18.72 20.9371C18.7646 21.0324 18.83 21.1167 18.9114 21.1838C18.9928 21.2509 19.0882 21.2991 19.1907 21.3249C19.2931 21.3508 19.4001 21.3537 19.5038 21.3333C21.8485 20.8649 28.1811 19.024 27.4375 12.8579C26.9524 9.27141 21.4711 8.48263 19.4213 8.30846C19.323 8.30054 19.2242 8.31305 19.131 8.34519C19.0379 8.37733 18.9525 8.4284 18.8803 8.49516C18.8081 8.56191 18.7506 8.64288 18.7116 8.73292C18.6725 8.82296 18.6527 8.9201 18.6535 9.01816V20.6326Z" fill="#002159"/>
<path d="M14.1577 6.01533L1.33237 0.0664668C1.22377 0.0161885 1.10422 -0.00616439 0.984682 0.00145794C0.865144 0.00908028 0.749442 0.0464339 0.648188 0.110093C0.546934 0.173753 0.463368 0.26168 0.405153 0.365813C0.346937 0.469946 0.315937 0.58695 0.314994 0.706097L2.06433e-05 37.8287C-0.000896282 37.9488 0.0287463 38.0671 0.0861886 38.1728C0.143631 38.2784 0.227005 38.3678 0.328549 38.4328C0.430094 38.4977 0.546506 38.536 0.666948 38.5442C0.787391 38.5523 0.907947 38.53 1.01739 38.4793L14.1577 32.3833C14.2814 32.3265 14.3861 32.2355 14.4594 32.1213C14.5327 32.007 14.5715 31.8742 14.5713 31.7387V6.66097C14.5712 6.52536 14.5323 6.39258 14.459 6.27822C14.3858 6.16386 14.2812 6.07266 14.1577 6.01533ZM3.40938 21.3464C3.07401 21.3464 2.74618 21.2475 2.46734 21.0622C2.1885 20.8769 1.97116 20.6134 1.84283 20.3052C1.71449 19.997 1.68091 19.6579 1.74634 19.3307C1.81176 19.0036 1.97325 18.703 2.21039 18.4671C2.44753 18.2313 2.74966 18.0706 3.07858 18.0055C3.40749 17.9405 3.74843 17.9739 4.05826 18.1015C4.3681 18.2292 4.63292 18.4454 4.81923 18.7227C5.00555 19.0001 5.105 19.3262 5.105 19.6598C5.105 20.1071 4.92635 20.5361 4.60836 20.8524C4.29037 21.1687 3.85908 21.3464 3.40938 21.3464Z" fill="#002159"/>
</g>
<defs>
<clipPath id="clip0">
<rect width="110" height="38.547" fill="white"/>
</clipPath>
</defs>
</svg>
