<svg width="14" height="19" viewBox="0 0 14 19" fill="none" xmlns="http://www.w3.org/2000/svg">
<path d="M12.25 2.33333H9.33333C9.33333 1.04635 8.28698 0 7 0C5.71302 0 4.66667 1.04635 4.66667 2.33333H1.75C0.783854 2.33333 0 3.11719 0 4.08333V16.9167C0 17.8828 0.783854 18.6667 1.75 18.6667H12.25C13.2161 18.6667 14 17.8828 14 16.9167V4.08333C14 3.11719 13.2161 2.33333 12.25 2.33333ZM3.5 15.4583C3.0151 15.4583 2.625 15.0682 2.625 14.5833C2.625 14.0984 3.0151 13.7083 3.5 13.7083C3.9849 13.7083 4.375 14.0984 4.375 14.5833C4.375 15.0682 3.9849 15.4583 3.5 15.4583ZM3.5 11.9583C3.0151 11.9583 2.625 11.5682 2.625 11.0833C2.625 10.5984 3.0151 10.2083 3.5 10.2083C3.9849 10.2083 4.375 10.5984 4.375 11.0833C4.375 11.5682 3.9849 11.9583 3.5 11.9583ZM3.5 8.45833C3.0151 8.45833 2.625 8.06823 2.625 7.58333C2.625 7.09844 3.0151 6.70833 3.5 6.70833C3.9849 6.70833 4.375 7.09844 4.375 7.58333C4.375 8.06823 3.9849 8.45833 3.5 8.45833ZM7 1.45833C7.4849 1.45833 7.875 1.84844 7.875 2.33333C7.875 2.81823 7.4849 3.20833 7 3.20833C6.5151 3.20833 6.125 2.81823 6.125 2.33333C6.125 1.84844 6.5151 1.45833 7 1.45833ZM11.6667 14.875C11.6667 15.0354 11.5354 15.1667 11.375 15.1667H6.125C5.96458 15.1667 5.83333 15.0354 5.83333 14.875V14.2917C5.83333 14.1312 5.96458 14 6.125 14H11.375C11.5354 14 11.6667 14.1312 11.6667 14.2917V14.875ZM11.6667 11.375C11.6667 11.5354 11.5354 11.6667 11.375 11.6667H6.125C5.96458 11.6667 5.83333 11.5354 5.83333 11.375V10.7917C5.83333 10.6312 5.96458 10.5 6.125 10.5H11.375C11.5354 10.5 11.6667 10.6312 11.6667 10.7917V11.375ZM11.6667 7.875C11.6667 8.03541 11.5354 8.16667 11.375 8.16667H6.125C5.96458 8.16667 5.83333 8.03541 5.83333 7.875V7.29167C5.83333 7.13125 5.96458 7 6.125 7H11.375C11.5354 7 11.6667 7.13125 11.6667 7.29167V7.875Z" fill="#5E5E61"/>
</svg>
