<svg width="20" height="14" viewBox="0 0 20 14" fill="none" xmlns="http://www.w3.org/2000/svg">
<path d="M16.4166 0.583374H3.58325C2.85391 0.583374 2.15443 0.873105 1.63871 1.38883C1.12298 1.90456 0.833252 2.60403 0.833252 3.33337V10.6667C0.833252 11.3961 1.12298 12.0955 1.63871 12.6113C2.15443 13.127 2.85391 13.4167 3.58325 13.4167H16.4166C17.1459 13.4167 17.8454 13.127 18.3611 12.6113C18.8769 12.0955 19.1666 11.3961 19.1666 10.6667V3.33337C19.1666 2.60403 18.8769 1.90456 18.3611 1.38883C17.8454 0.873105 17.1459 0.583374 16.4166 0.583374ZM9.08325 9.75004H5.41659C5.17347 9.75004 4.94031 9.65347 4.76841 9.48156C4.5965 9.30965 4.49992 9.07649 4.49992 8.83338C4.49992 8.59026 4.5965 8.3571 4.76841 8.18519C4.94031 8.01329 5.17347 7.91671 5.41659 7.91671H9.08325C9.32637 7.91671 9.55953 8.01329 9.73143 8.18519C9.90334 8.3571 9.99992 8.59026 9.99992 8.83338C9.99992 9.07649 9.90334 9.30965 9.73143 9.48156C9.55953 9.65347 9.32637 9.75004 9.08325 9.75004ZM14.5833 9.75004H12.7499C12.5068 9.75004 12.2736 9.65347 12.1017 9.48156C11.9298 9.30965 11.8333 9.07649 11.8333 8.83338C11.8333 8.59026 11.9298 8.3571 12.1017 8.18519C12.2736 8.01329 12.5068 7.91671 12.7499 7.91671H14.5833C14.8264 7.91671 15.0595 8.01329 15.2314 8.18519C15.4033 8.3571 15.4999 8.59026 15.4999 8.83338C15.4999 9.07649 15.4033 9.30965 15.2314 9.48156C15.0595 9.65347 14.8264 9.75004 14.5833 9.75004ZM17.3333 4.25004H2.66659V3.33337C2.66659 3.09026 2.76316 2.8571 2.93507 2.68519C3.10698 2.51329 3.34014 2.41671 3.58325 2.41671H16.4166C16.6597 2.41671 16.8929 2.51329 17.0648 2.68519C17.2367 2.8571 17.3333 3.09026 17.3333 3.33337V4.25004Z" fill="#5E5E61"/>
</svg>
