<svg width="1440" height="444" viewBox="0 0 1440 444" fill="none" xmlns="http://www.w3.org/2000/svg">
<g opacity="0.3">
<g clip-path="url(#clip0)">
<path d="M465 -47H-26V444H465V-47Z" fill="#2186EB" fill-opacity="0.1"/>
<path d="M59.925 51.2H-124.2V235.325H59.925V51.2Z" stroke="#0552B5" stroke-opacity="0.2" stroke-width="15.712"/>
<path d="M47.65 63.475H-111.925V223.05H47.65V63.475Z" stroke="#0552B5" stroke-opacity="0.2" stroke-width="15.712"/>
<path d="M35.375 75.75H-99.65V210.775H35.375V75.75Z" stroke="#0552B5" stroke-opacity="0.2" stroke-width="15.712"/>
<path d="M23.1 88.025H-87.375V198.5H23.1V88.025Z" stroke="#0552B5" stroke-opacity="0.2" stroke-width="15.712"/>
<path d="M10.825 100.3H-75.1V186.225H10.825V100.3Z" stroke="#0552B5" stroke-opacity="0.2" stroke-width="15.712"/>
<path d="M-1.44995 112.575H-62.825V173.95H-1.44995V112.575Z" stroke="#0552B5" stroke-opacity="0.2" stroke-width="15.712"/>
<path d="M59.925 -47H-26V38.925H59.925V-47Z" stroke="#0552B5" stroke-opacity="0.2" stroke-width="15.712"/>
<path d="M47.65 -34.725H-13.725V26.65H47.65V-34.725Z" stroke="#0552B5" stroke-opacity="0.2" stroke-width="15.712"/>
<path d="M35.375 -22.45H-1.44995V14.375H35.375V-22.45Z" stroke="#0552B5" stroke-opacity="0.2" stroke-width="15.712"/>
<path d="M23.1 -10.175H10.825V2.09995H23.1V-10.175Z" stroke="#0552B5" stroke-opacity="0.2" stroke-width="15.712"/>
<path d="M256.325 -47H72.2V137.125H256.325V-47Z" stroke="#0552B5" stroke-opacity="0.2" stroke-width="15.712"/>
<path d="M244.05 -34.725H84.475V124.85H244.05V-34.725Z" stroke="#0552B5" stroke-opacity="0.2" stroke-width="15.712"/>
<path d="M231.775 -22.45H96.75V112.575H231.775V-22.45Z" stroke="#0552B5" stroke-opacity="0.2" stroke-width="15.712"/>
<path d="M219.5 -10.175H109.025V100.3H219.5V-10.175Z" stroke="#0552B5" stroke-opacity="0.2" stroke-width="15.712"/>
<path d="M207.225 2.09998H121.3V88.025H207.225V2.09998Z" stroke="#0552B5" stroke-opacity="0.2" stroke-width="15.712"/>
<path d="M194.95 14.375H133.575V75.75H194.95V14.375Z" stroke="#0552B5" stroke-opacity="0.2" stroke-width="15.712"/>
<path d="M182.675 26.65H145.85V63.475H182.675V26.65Z" stroke="#0552B5" stroke-opacity="0.2" stroke-width="15.712"/>
<path d="M170.4 38.925H158.125V51.2H170.4V38.925Z" stroke="#0552B5" stroke-opacity="0.2" stroke-width="15.712"/>
<path d="M158.125 149.4H72.2V235.325H158.125V149.4Z" stroke="#0552B5" stroke-opacity="0.2" stroke-width="15.712"/>
<path d="M145.85 161.675H84.475V223.05H145.85V161.675Z" stroke="#0552B5" stroke-opacity="0.2" stroke-width="15.712"/>
<path d="M133.575 173.95H96.75V210.775H133.575V173.95Z" stroke="#0552B5" stroke-opacity="0.2" stroke-width="15.712"/>
<path d="M121.3 186.225H109.025V198.5H121.3V186.225Z" stroke="#0552B5" stroke-opacity="0.2" stroke-width="15.712"/>
<path d="M452.725 -145.2H268.6V38.925H452.725V-145.2Z" stroke="#0552B5" stroke-opacity="0.2" stroke-width="15.712"/>
<path d="M440.45 -132.925H280.875V26.65H440.45V-132.925Z" stroke="#0552B5" stroke-opacity="0.2" stroke-width="15.712"/>
<path d="M428.175 -120.65H293.15V14.375H428.175V-120.65Z" stroke="#0552B5" stroke-opacity="0.2" stroke-width="15.712"/>
<path d="M415.9 -108.375H305.425V2.1H415.9V-108.375Z" stroke="#0552B5" stroke-opacity="0.2" stroke-width="15.712"/>
<path d="M354.525 51.2H268.6V137.125H354.525V51.2Z" stroke="#0552B5" stroke-opacity="0.2" stroke-width="15.712"/>
<path d="M342.25 63.475H280.875V124.85H342.25V63.475Z" stroke="#0552B5" stroke-opacity="0.2" stroke-width="15.712"/>
<path d="M329.975 75.75H293.15V112.575H329.975V75.75Z" stroke="#0552B5" stroke-opacity="0.2" stroke-width="15.712"/>
<path d="M317.7 88.025H305.425V100.3H317.7V88.025Z" stroke="#0552B5" stroke-opacity="0.2" stroke-width="15.712"/>
<path d="M158.125 247.6H-26V431.725H158.125V247.6Z" stroke="#0552B5" stroke-opacity="0.2" stroke-width="15.712"/>
<path d="M145.85 259.875H-13.725V419.45H145.85V259.875Z" stroke="#0552B5" stroke-opacity="0.2" stroke-width="15.712"/>
<path d="M133.575 272.15H-1.44995V407.175H133.575V272.15Z" stroke="#0552B5" stroke-opacity="0.2" stroke-width="15.712"/>
<path d="M121.3 284.425H10.825V394.9H121.3V284.425Z" stroke="#0552B5" stroke-opacity="0.2" stroke-width="15.712"/>
<path d="M109.025 296.7H23.1V382.625H109.025V296.7Z" stroke="#0552B5" stroke-opacity="0.2" stroke-width="15.712"/>
<path d="M96.75 308.975H35.375V370.35H96.75V308.975Z" stroke="#0552B5" stroke-opacity="0.2" stroke-width="15.712"/>
<path d="M84.475 321.25H47.65V358.075H84.475V321.25Z" stroke="#0552B5" stroke-opacity="0.2" stroke-width="15.712"/>
<path d="M72.2 333.525H59.925V345.8H72.2V333.525Z" stroke="#0552B5" stroke-opacity="0.2" stroke-width="15.712"/>
<path d="M649.125 247.6H465V431.725H649.125V247.6Z" stroke="#0552B5" stroke-opacity="0.2" stroke-width="15.712"/>
<path d="M256.325 444H72.2V628.125H256.325V444Z" stroke="#0552B5" stroke-opacity="0.2" stroke-width="15.712"/>
<path d="M354.525 149.4H170.4V333.525H354.525V149.4Z" stroke="#0552B5" stroke-opacity="0.2" stroke-width="15.712"/>
<path d="M342.25 161.675H182.675V321.25H342.25V161.675Z" stroke="#0552B5" stroke-opacity="0.2" stroke-width="15.712"/>
<path d="M329.975 173.95H194.95V308.975H329.975V173.95Z" stroke="#0552B5" stroke-opacity="0.2" stroke-width="15.712"/>
<path d="M317.7 186.225H207.225V296.7H317.7V186.225Z" stroke="#0552B5" stroke-opacity="0.2" stroke-width="15.712"/>
<path d="M305.425 198.5H219.5V284.425H305.425V198.5Z" stroke="#0552B5" stroke-opacity="0.2" stroke-width="15.712"/>
<path d="M293.15 210.775H231.775V272.15H293.15V210.775Z" stroke="#0552B5" stroke-opacity="0.2" stroke-width="15.712"/>
<path d="M280.875 223.05H244.05V259.875H280.875V223.05Z" stroke="#0552B5" stroke-opacity="0.2" stroke-width="15.712"/>
<path d="M268.6 235.325H256.325V247.6H268.6V235.325Z" stroke="#0552B5" stroke-opacity="0.2" stroke-width="15.712"/>
<path d="M256.325 345.8H170.4V431.725H256.325V345.8Z" stroke="#0552B5" stroke-opacity="0.2" stroke-width="15.712"/>
<path d="M244.05 358.075H182.675V419.45H244.05V358.075Z" stroke="#0552B5" stroke-opacity="0.2" stroke-width="15.712"/>
<path d="M231.775 370.35H194.95V407.175H231.775V370.35Z" stroke="#0552B5" stroke-opacity="0.2" stroke-width="15.712"/>
<path d="M219.5 382.625H207.225V394.9H219.5V382.625Z" stroke="#0552B5" stroke-opacity="0.2" stroke-width="15.712"/>
<path d="M452.725 345.8H268.6V529.925H452.725V345.8Z" stroke="#0552B5" stroke-opacity="0.2" stroke-width="15.712"/>
<path d="M440.45 358.075H280.875V517.65H440.45V358.075Z" stroke="#0552B5" stroke-opacity="0.2" stroke-width="15.712"/>
<path d="M428.175 370.35H293.15V505.375H428.175V370.35Z" stroke="#0552B5" stroke-opacity="0.2" stroke-width="15.712"/>
<path d="M415.9 382.625H305.425V493.1H415.9V382.625Z" stroke="#0552B5" stroke-opacity="0.2" stroke-width="15.712"/>
<path d="M403.625 394.9H317.7V480.825H403.625V394.9Z" stroke="#0552B5" stroke-opacity="0.2" stroke-width="15.712"/>
<path d="M391.35 407.175H329.975V468.55H391.35V407.175Z" stroke="#0552B5" stroke-opacity="0.2" stroke-width="15.712"/>
<path d="M379.075 419.45H342.25V456.275H379.075V419.45Z" stroke="#0552B5" stroke-opacity="0.2" stroke-width="15.712"/>
<path d="M366.8 431.725H354.525V444H366.8V431.725Z" stroke="#0552B5" stroke-opacity="0.2" stroke-width="15.712"/>
<path d="M550.925 51.2H366.8V235.325H550.925V51.2Z" stroke="#0552B5" stroke-opacity="0.2" stroke-width="15.712"/>
<path d="M538.65 63.475H379.075V223.05H538.65V63.475Z" stroke="#0552B5" stroke-opacity="0.2" stroke-width="15.712"/>
<path d="M526.375 75.75H391.35V210.775H526.375V75.75Z" stroke="#0552B5" stroke-opacity="0.2" stroke-width="15.712"/>
<path d="M514.1 88.025H403.625V198.5H514.1V88.025Z" stroke="#0552B5" stroke-opacity="0.2" stroke-width="15.712"/>
<path d="M501.825 100.3H415.9V186.225H501.825V100.3Z" stroke="#0552B5" stroke-opacity="0.2" stroke-width="15.712"/>
<path d="M489.55 112.575H428.175V173.95H489.55V112.575Z" stroke="#0552B5" stroke-opacity="0.2" stroke-width="15.712"/>
<path d="M477.275 124.85H440.45V161.675H477.275V124.85Z" stroke="#0552B5" stroke-opacity="0.2" stroke-width="15.712"/>
<path d="M465 137.125H452.725V149.4H465V137.125Z" stroke="#0552B5" stroke-opacity="0.2" stroke-width="15.712"/>
<path d="M452.725 247.6H366.8V333.525H452.725V247.6Z" stroke="#0552B5" stroke-opacity="0.2" stroke-width="15.712"/>
<path d="M440.45 259.875H379.075V321.25H440.45V259.875Z" stroke="#0552B5" stroke-opacity="0.2" stroke-width="15.712"/>
<path d="M428.175 272.15H391.35V308.975H428.175V272.15Z" stroke="#0552B5" stroke-opacity="0.2" stroke-width="15.712"/>
<path d="M415.9 284.425H403.625V296.7H415.9V284.425Z" stroke="#0552B5" stroke-opacity="0.2" stroke-width="15.712"/>
<path d="M550.925 444H465V529.925H550.925V444Z" stroke="#0552B5" stroke-opacity="0.2" stroke-width="15.712"/>
<path d="M550.925 -47H465V38.925H550.925V-47Z" stroke="#0552B5" stroke-opacity="0.2" stroke-width="15.712"/>
<path d="M59.925 444H-26V529.925H59.925V444Z" stroke="#0552B5" stroke-opacity="0.2" stroke-width="15.712"/>
</g>
<g clip-path="url(#clip1)">
<path d="M956 -47H465V444H956V-47Z" fill="#2186EB" fill-opacity="0.1"/>
<path d="M550.925 51.2H366.8V235.325H550.925V51.2Z" stroke="#0552B5" stroke-opacity="0.2" stroke-width="15.712"/>
<path d="M538.65 63.475H379.075V223.05H538.65V63.475Z" stroke="#0552B5" stroke-opacity="0.2" stroke-width="15.712"/>
<path d="M526.375 75.75H391.35V210.775H526.375V75.75Z" stroke="#0552B5" stroke-opacity="0.2" stroke-width="15.712"/>
<path d="M514.1 88.025H403.625V198.5H514.1V88.025Z" stroke="#0552B5" stroke-opacity="0.2" stroke-width="15.712"/>
<path d="M501.825 100.3H415.9V186.225H501.825V100.3Z" stroke="#0552B5" stroke-opacity="0.2" stroke-width="15.712"/>
<path d="M489.55 112.575H428.175V173.95H489.55V112.575Z" stroke="#0552B5" stroke-opacity="0.2" stroke-width="15.712"/>
<path d="M477.275 124.85H440.45V161.675H477.275V124.85Z" stroke="#0552B5" stroke-opacity="0.2" stroke-width="15.712"/>
<path d="M465 137.125H452.725V149.4H465V137.125Z" stroke="#0552B5" stroke-opacity="0.2" stroke-width="15.712"/>
<path d="M550.925 -47H465V38.925H550.925V-47Z" stroke="#0552B5" stroke-opacity="0.2" stroke-width="15.712"/>
<path d="M538.65 -34.725H477.275V26.65H538.65V-34.725Z" stroke="#0552B5" stroke-opacity="0.2" stroke-width="15.712"/>
<path d="M526.375 -22.45H489.55V14.375H526.375V-22.45Z" stroke="#0552B5" stroke-opacity="0.2" stroke-width="15.712"/>
<path d="M514.1 -10.175H501.825V2.09995H514.1V-10.175Z" stroke="#0552B5" stroke-opacity="0.2" stroke-width="15.712"/>
<path d="M747.325 -47H563.2V137.125H747.325V-47Z" stroke="#0552B5" stroke-opacity="0.2" stroke-width="15.712"/>
<path d="M735.05 -34.725H575.475V124.85H735.05V-34.725Z" stroke="#0552B5" stroke-opacity="0.2" stroke-width="15.712"/>
<path d="M722.775 -22.45H587.75V112.575H722.775V-22.45Z" stroke="#0552B5" stroke-opacity="0.2" stroke-width="15.712"/>
<path d="M710.5 -10.175H600.025V100.3H710.5V-10.175Z" stroke="#0552B5" stroke-opacity="0.2" stroke-width="15.712"/>
<path d="M698.225 2.09998H612.3V88.025H698.225V2.09998Z" stroke="#0552B5" stroke-opacity="0.2" stroke-width="15.712"/>
<path d="M685.95 14.375H624.575V75.75H685.95V14.375Z" stroke="#0552B5" stroke-opacity="0.2" stroke-width="15.712"/>
<path d="M673.675 26.65H636.85V63.475H673.675V26.65Z" stroke="#0552B5" stroke-opacity="0.2" stroke-width="15.712"/>
<path d="M661.4 38.925H649.125V51.2H661.4V38.925Z" stroke="#0552B5" stroke-opacity="0.2" stroke-width="15.712"/>
<path d="M649.125 149.4H563.2V235.325H649.125V149.4Z" stroke="#0552B5" stroke-opacity="0.2" stroke-width="15.712"/>
<path d="M636.85 161.675H575.475V223.05H636.85V161.675Z" stroke="#0552B5" stroke-opacity="0.2" stroke-width="15.712"/>
<path d="M624.575 173.95H587.75V210.775H624.575V173.95Z" stroke="#0552B5" stroke-opacity="0.2" stroke-width="15.712"/>
<path d="M612.3 186.225H600.025V198.5H612.3V186.225Z" stroke="#0552B5" stroke-opacity="0.2" stroke-width="15.712"/>
<path d="M943.725 -145.2H759.6V38.925H943.725V-145.2Z" stroke="#0552B5" stroke-opacity="0.2" stroke-width="15.712"/>
<path d="M931.45 -132.925H771.875V26.65H931.45V-132.925Z" stroke="#0552B5" stroke-opacity="0.2" stroke-width="15.712"/>
<path d="M919.175 -120.65H784.15V14.375H919.175V-120.65Z" stroke="#0552B5" stroke-opacity="0.2" stroke-width="15.712"/>
<path d="M906.9 -108.375H796.425V2.1H906.9V-108.375Z" stroke="#0552B5" stroke-opacity="0.2" stroke-width="15.712"/>
<path d="M845.525 51.2H759.6V137.125H845.525V51.2Z" stroke="#0552B5" stroke-opacity="0.2" stroke-width="15.712"/>
<path d="M833.25 63.475H771.875V124.85H833.25V63.475Z" stroke="#0552B5" stroke-opacity="0.2" stroke-width="15.712"/>
<path d="M820.975 75.75H784.15V112.575H820.975V75.75Z" stroke="#0552B5" stroke-opacity="0.2" stroke-width="15.712"/>
<path d="M808.7 88.025H796.425V100.3H808.7V88.025Z" stroke="#0552B5" stroke-opacity="0.2" stroke-width="15.712"/>
<path d="M649.125 247.6H465V431.725H649.125V247.6Z" stroke="#0552B5" stroke-opacity="0.2" stroke-width="15.712"/>
<path d="M636.85 259.875H477.275V419.45H636.85V259.875Z" stroke="#0552B5" stroke-opacity="0.2" stroke-width="15.712"/>
<path d="M624.575 272.15H489.55V407.175H624.575V272.15Z" stroke="#0552B5" stroke-opacity="0.2" stroke-width="15.712"/>
<path d="M612.3 284.425H501.825V394.9H612.3V284.425Z" stroke="#0552B5" stroke-opacity="0.2" stroke-width="15.712"/>
<path d="M600.025 296.7H514.1V382.625H600.025V296.7Z" stroke="#0552B5" stroke-opacity="0.2" stroke-width="15.712"/>
<path d="M587.75 308.975H526.375V370.35H587.75V308.975Z" stroke="#0552B5" stroke-opacity="0.2" stroke-width="15.712"/>
<path d="M575.475 321.25H538.65V358.075H575.475V321.25Z" stroke="#0552B5" stroke-opacity="0.2" stroke-width="15.712"/>
<path d="M563.2 333.525H550.925V345.8H563.2V333.525Z" stroke="#0552B5" stroke-opacity="0.2" stroke-width="15.712"/>
<path d="M1140.12 247.6H956V431.725H1140.12V247.6Z" stroke="#0552B5" stroke-opacity="0.2" stroke-width="15.712"/>
<path d="M747.325 444H563.2V628.125H747.325V444Z" stroke="#0552B5" stroke-opacity="0.2" stroke-width="15.712"/>
<path d="M845.525 149.4H661.4V333.525H845.525V149.4Z" stroke="#0552B5" stroke-opacity="0.2" stroke-width="15.712"/>
<path d="M833.25 161.675H673.675V321.25H833.25V161.675Z" stroke="#0552B5" stroke-opacity="0.2" stroke-width="15.712"/>
<path d="M820.975 173.95H685.95V308.975H820.975V173.95Z" stroke="#0552B5" stroke-opacity="0.2" stroke-width="15.712"/>
<path d="M808.7 186.225H698.225V296.7H808.7V186.225Z" stroke="#0552B5" stroke-opacity="0.2" stroke-width="15.712"/>
<path d="M796.425 198.5H710.5V284.425H796.425V198.5Z" stroke="#0552B5" stroke-opacity="0.2" stroke-width="15.712"/>
<path d="M784.15 210.775H722.775V272.15H784.15V210.775Z" stroke="#0552B5" stroke-opacity="0.2" stroke-width="15.712"/>
<path d="M771.875 223.05H735.05V259.875H771.875V223.05Z" stroke="#0552B5" stroke-opacity="0.2" stroke-width="15.712"/>
<path d="M759.6 235.325H747.325V247.6H759.6V235.325Z" stroke="#0552B5" stroke-opacity="0.2" stroke-width="15.712"/>
<path d="M747.325 345.8H661.4V431.725H747.325V345.8Z" stroke="#0552B5" stroke-opacity="0.2" stroke-width="15.712"/>
<path d="M735.05 358.075H673.675V419.45H735.05V358.075Z" stroke="#0552B5" stroke-opacity="0.2" stroke-width="15.712"/>
<path d="M722.775 370.35H685.95V407.175H722.775V370.35Z" stroke="#0552B5" stroke-opacity="0.2" stroke-width="15.712"/>
<path d="M710.5 382.625H698.225V394.9H710.5V382.625Z" stroke="#0552B5" stroke-opacity="0.2" stroke-width="15.712"/>
<path d="M943.725 345.8H759.6V529.925H943.725V345.8Z" stroke="#0552B5" stroke-opacity="0.2" stroke-width="15.712"/>
<path d="M931.45 358.075H771.875V517.65H931.45V358.075Z" stroke="#0552B5" stroke-opacity="0.2" stroke-width="15.712"/>
<path d="M919.175 370.35H784.15V505.375H919.175V370.35Z" stroke="#0552B5" stroke-opacity="0.2" stroke-width="15.712"/>
<path d="M906.9 382.625H796.425V493.1H906.9V382.625Z" stroke="#0552B5" stroke-opacity="0.2" stroke-width="15.712"/>
<path d="M894.625 394.9H808.7V480.825H894.625V394.9Z" stroke="#0552B5" stroke-opacity="0.2" stroke-width="15.712"/>
<path d="M882.35 407.175H820.975V468.55H882.35V407.175Z" stroke="#0552B5" stroke-opacity="0.2" stroke-width="15.712"/>
<path d="M870.075 419.45H833.25V456.275H870.075V419.45Z" stroke="#0552B5" stroke-opacity="0.2" stroke-width="15.712"/>
<path d="M857.8 431.725H845.525V444H857.8V431.725Z" stroke="#0552B5" stroke-opacity="0.2" stroke-width="15.712"/>
<path d="M1041.93 51.2H857.8V235.325H1041.93V51.2Z" stroke="#0552B5" stroke-opacity="0.2" stroke-width="15.712"/>
<path d="M1029.65 63.475H870.075V223.05H1029.65V63.475Z" stroke="#0552B5" stroke-opacity="0.2" stroke-width="15.712"/>
<path d="M1017.38 75.75H882.35V210.775H1017.38V75.75Z" stroke="#0552B5" stroke-opacity="0.2" stroke-width="15.712"/>
<path d="M1005.1 88.025H894.625V198.5H1005.1V88.025Z" stroke="#0552B5" stroke-opacity="0.2" stroke-width="15.712"/>
<path d="M992.825 100.3H906.9V186.225H992.825V100.3Z" stroke="#0552B5" stroke-opacity="0.2" stroke-width="15.712"/>
<path d="M980.55 112.575H919.175V173.95H980.55V112.575Z" stroke="#0552B5" stroke-opacity="0.2" stroke-width="15.712"/>
<path d="M968.275 124.85H931.45V161.675H968.275V124.85Z" stroke="#0552B5" stroke-opacity="0.2" stroke-width="15.712"/>
<path d="M956 137.125H943.725V149.4H956V137.125Z" stroke="#0552B5" stroke-opacity="0.2" stroke-width="15.712"/>
<path d="M943.725 247.6H857.8V333.525H943.725V247.6Z" stroke="#0552B5" stroke-opacity="0.2" stroke-width="15.712"/>
<path d="M931.45 259.875H870.075V321.25H931.45V259.875Z" stroke="#0552B5" stroke-opacity="0.2" stroke-width="15.712"/>
<path d="M919.175 272.15H882.35V308.975H919.175V272.15Z" stroke="#0552B5" stroke-opacity="0.2" stroke-width="15.712"/>
<path d="M906.9 284.425H894.625V296.7H906.9V284.425Z" stroke="#0552B5" stroke-opacity="0.2" stroke-width="15.712"/>
<path d="M1041.92 444H956V529.925H1041.92V444Z" stroke="#0552B5" stroke-opacity="0.2" stroke-width="15.712"/>
<path d="M1041.92 -47H956V38.925H1041.92V-47Z" stroke="#0552B5" stroke-opacity="0.2" stroke-width="15.712"/>
<path d="M550.925 444H465V529.925H550.925V444Z" stroke="#0552B5" stroke-opacity="0.2" stroke-width="15.712"/>
</g>
<g clip-path="url(#clip2)">
<path d="M1447 -47H956V444H1447V-47Z" fill="#2186EB" fill-opacity="0.1"/>
<path d="M1041.93 51.2008H857.8V235.326H1041.93V51.2008Z" stroke="#0552B5" stroke-opacity="0.2" stroke-width="15.712"/>
<path d="M1029.65 63.4758H870.075V223.051H1029.65V63.4758Z" stroke="#0552B5" stroke-opacity="0.2" stroke-width="15.712"/>
<path d="M1017.38 75.7507H882.35V210.776H1017.38V75.7507Z" stroke="#0552B5" stroke-opacity="0.2" stroke-width="15.712"/>
<path d="M1005.1 88.0258H894.625V198.501H1005.1V88.0258Z" stroke="#0552B5" stroke-opacity="0.2" stroke-width="15.712"/>
<path d="M992.825 100.301H906.9V186.226H992.825V100.301Z" stroke="#0552B5" stroke-opacity="0.2" stroke-width="15.712"/>
<path d="M980.55 112.576H919.175V173.951H980.55V112.576Z" stroke="#0552B5" stroke-opacity="0.2" stroke-width="15.712"/>
<path d="M968.275 124.851H931.45V161.676H968.275V124.851Z" stroke="#0552B5" stroke-opacity="0.2" stroke-width="15.712"/>
<path d="M956 137.126H943.725V149.401H956V137.126Z" stroke="#0552B5" stroke-opacity="0.2" stroke-width="15.712"/>
<path d="M1041.92 -46.9992H956V38.9258H1041.92V-46.9992Z" stroke="#0552B5" stroke-opacity="0.2" stroke-width="15.712"/>
<path d="M1029.65 -34.7242H968.275V26.6508H1029.65V-34.7242Z" stroke="#0552B5" stroke-opacity="0.2" stroke-width="15.712"/>
<path d="M1017.38 -22.4492H980.55V14.3758H1017.38V-22.4492Z" stroke="#0552B5" stroke-opacity="0.2" stroke-width="15.712"/>
<path d="M1005.1 -10.1742H992.825V2.10081H1005.1V-10.1742Z" stroke="#0552B5" stroke-opacity="0.2" stroke-width="15.712"/>
<path d="M1238.32 -46.9992H1054.2V137.126H1238.32V-46.9992Z" stroke="#0552B5" stroke-opacity="0.2" stroke-width="15.712"/>
<path d="M1226.05 -34.7242H1066.48V124.851H1226.05V-34.7242Z" stroke="#0552B5" stroke-opacity="0.2" stroke-width="15.712"/>
<path d="M1213.77 -22.4492H1078.75V112.576H1213.77V-22.4492Z" stroke="#0552B5" stroke-opacity="0.2" stroke-width="15.712"/>
<path d="M1201.5 -10.1742H1091.03V100.301H1201.5V-10.1742Z" stroke="#0552B5" stroke-opacity="0.2" stroke-width="15.712"/>
<path d="M1189.23 2.10083H1103.3V88.0258H1189.23V2.10083Z" stroke="#0552B5" stroke-opacity="0.2" stroke-width="15.712"/>
<path d="M1176.95 14.3757H1115.57V75.7507H1176.95V14.3757Z" stroke="#0552B5" stroke-opacity="0.2" stroke-width="15.712"/>
<path d="M1164.68 26.6508H1127.85V63.4758H1164.68V26.6508Z" stroke="#0552B5" stroke-opacity="0.2" stroke-width="15.712"/>
<path d="M1152.4 38.9258H1140.12V51.2008H1152.4V38.9258Z" stroke="#0552B5" stroke-opacity="0.2" stroke-width="15.712"/>
<path d="M1140.12 149.401H1054.2V235.326H1140.12V149.401Z" stroke="#0552B5" stroke-opacity="0.2" stroke-width="15.712"/>
<path d="M1127.85 161.676H1066.48V223.051H1127.85V161.676Z" stroke="#0552B5" stroke-opacity="0.2" stroke-width="15.712"/>
<path d="M1115.57 173.951H1078.75V210.776H1115.57V173.951Z" stroke="#0552B5" stroke-opacity="0.2" stroke-width="15.712"/>
<path d="M1103.3 186.226H1091.03V198.501H1103.3V186.226Z" stroke="#0552B5" stroke-opacity="0.2" stroke-width="15.712"/>
<path d="M1434.73 -145.199H1250.6V38.9258H1434.73V-145.199Z" stroke="#0552B5" stroke-opacity="0.2" stroke-width="15.712"/>
<path d="M1422.45 -132.924H1262.88V26.6508H1422.45V-132.924Z" stroke="#0552B5" stroke-opacity="0.2" stroke-width="15.712"/>
<path d="M1410.17 -120.649H1275.15V14.3758H1410.17V-120.649Z" stroke="#0552B5" stroke-opacity="0.2" stroke-width="15.712"/>
<path d="M1397.9 -108.374H1287.43V2.10079H1397.9V-108.374Z" stroke="#0552B5" stroke-opacity="0.2" stroke-width="15.712"/>
<path d="M1336.53 51.2008H1250.6V137.126H1336.53V51.2008Z" stroke="#0552B5" stroke-opacity="0.2" stroke-width="15.712"/>
<path d="M1324.25 63.4758H1262.88V124.851H1324.25V63.4758Z" stroke="#0552B5" stroke-opacity="0.2" stroke-width="15.712"/>
<path d="M1311.97 75.7507H1275.15V112.576H1311.97V75.7507Z" stroke="#0552B5" stroke-opacity="0.2" stroke-width="15.712"/>
<path d="M1299.7 88.0258H1287.43V100.301H1299.7V88.0258Z" stroke="#0552B5" stroke-opacity="0.2" stroke-width="15.712"/>
<path d="M1140.12 247.601H956V431.726H1140.12V247.601Z" stroke="#0552B5" stroke-opacity="0.2" stroke-width="15.712"/>
<path d="M1127.85 259.876H968.275V419.451H1127.85V259.876Z" stroke="#0552B5" stroke-opacity="0.2" stroke-width="15.712"/>
<path d="M1115.58 272.151H980.55V407.176H1115.58V272.151Z" stroke="#0552B5" stroke-opacity="0.2" stroke-width="15.712"/>
<path d="M1103.3 284.426H992.825V394.901H1103.3V284.426Z" stroke="#0552B5" stroke-opacity="0.2" stroke-width="15.712"/>
<path d="M1091.03 296.701H1005.1V382.626H1091.03V296.701Z" stroke="#0552B5" stroke-opacity="0.2" stroke-width="15.712"/>
<path d="M1078.75 308.976H1017.38V370.351H1078.75V308.976Z" stroke="#0552B5" stroke-opacity="0.2" stroke-width="15.712"/>
<path d="M1066.48 321.251H1029.65V358.076H1066.48V321.251Z" stroke="#0552B5" stroke-opacity="0.2" stroke-width="15.712"/>
<path d="M1054.2 333.526H1041.93V345.801H1054.2V333.526Z" stroke="#0552B5" stroke-opacity="0.2" stroke-width="15.712"/>
<path d="M1631.12 247.601H1447V431.726H1631.12V247.601Z" stroke="#0552B5" stroke-opacity="0.2" stroke-width="15.712"/>
<path d="M1238.32 444.001H1054.2V628.126H1238.32V444.001Z" stroke="#0552B5" stroke-opacity="0.2" stroke-width="15.712"/>
<path d="M1336.52 149.401H1152.4V333.526H1336.52V149.401Z" stroke="#0552B5" stroke-opacity="0.2" stroke-width="15.712"/>
<path d="M1324.25 161.676H1164.68V321.251H1324.25V161.676Z" stroke="#0552B5" stroke-opacity="0.2" stroke-width="15.712"/>
<path d="M1311.97 173.951H1176.95V308.976H1311.97V173.951Z" stroke="#0552B5" stroke-opacity="0.2" stroke-width="15.712"/>
<path d="M1299.7 186.226H1189.23V296.701H1299.7V186.226Z" stroke="#0552B5" stroke-opacity="0.2" stroke-width="15.712"/>
<path d="M1287.42 198.501H1201.5V284.426H1287.42V198.501Z" stroke="#0552B5" stroke-opacity="0.2" stroke-width="15.712"/>
<path d="M1275.15 210.776H1213.77V272.151H1275.15V210.776Z" stroke="#0552B5" stroke-opacity="0.2" stroke-width="15.712"/>
<path d="M1262.88 223.051H1226.05V259.876H1262.88V223.051Z" stroke="#0552B5" stroke-opacity="0.2" stroke-width="15.712"/>
<path d="M1250.6 235.326H1238.32V247.601H1250.6V235.326Z" stroke="#0552B5" stroke-opacity="0.2" stroke-width="15.712"/>
<path d="M1238.32 345.801H1152.4V431.726H1238.32V345.801Z" stroke="#0552B5" stroke-opacity="0.2" stroke-width="15.712"/>
<path d="M1226.05 358.076H1164.68V419.451H1226.05V358.076Z" stroke="#0552B5" stroke-opacity="0.2" stroke-width="15.712"/>
<path d="M1213.77 370.351H1176.95V407.176H1213.77V370.351Z" stroke="#0552B5" stroke-opacity="0.2" stroke-width="15.712"/>
<path d="M1201.5 382.626H1189.23V394.901H1201.5V382.626Z" stroke="#0552B5" stroke-opacity="0.2" stroke-width="15.712"/>
<path d="M1434.73 345.801H1250.6V529.926H1434.73V345.801Z" stroke="#0552B5" stroke-opacity="0.2" stroke-width="15.712"/>
<path d="M1422.45 358.076H1262.88V517.651H1422.45V358.076Z" stroke="#0552B5" stroke-opacity="0.2" stroke-width="15.712"/>
<path d="M1410.17 370.351H1275.15V505.376H1410.17V370.351Z" stroke="#0552B5" stroke-opacity="0.2" stroke-width="15.712"/>
<path d="M1397.9 382.626H1287.43V493.101H1397.9V382.626Z" stroke="#0552B5" stroke-opacity="0.2" stroke-width="15.712"/>
<path d="M1385.62 394.901H1299.7V480.826H1385.62V394.901Z" stroke="#0552B5" stroke-opacity="0.2" stroke-width="15.712"/>
<path d="M1373.35 407.176H1311.98V468.551H1373.35V407.176Z" stroke="#0552B5" stroke-opacity="0.2" stroke-width="15.712"/>
<path d="M1361.07 419.451H1324.25V456.276H1361.07V419.451Z" stroke="#0552B5" stroke-opacity="0.2" stroke-width="15.712"/>
<path d="M1348.8 431.726H1336.52V444.001H1348.8V431.726Z" stroke="#0552B5" stroke-opacity="0.2" stroke-width="15.712"/>
<path d="M1532.93 51.2008H1348.8V235.326H1532.93V51.2008Z" stroke="#0552B5" stroke-opacity="0.2" stroke-width="15.712"/>
<path d="M1520.65 63.4758H1361.07V223.051H1520.65V63.4758Z" stroke="#0552B5" stroke-opacity="0.2" stroke-width="15.712"/>
<path d="M1508.38 75.7507H1373.35V210.776H1508.38V75.7507Z" stroke="#0552B5" stroke-opacity="0.2" stroke-width="15.712"/>
<path d="M1496.1 88.0258H1385.62V198.501H1496.1V88.0258Z" stroke="#0552B5" stroke-opacity="0.2" stroke-width="15.712"/>
<path d="M1483.82 100.301H1397.9V186.226H1483.82V100.301Z" stroke="#0552B5" stroke-opacity="0.2" stroke-width="15.712"/>
<path d="M1471.55 112.576H1410.18V173.951H1471.55V112.576Z" stroke="#0552B5" stroke-opacity="0.2" stroke-width="15.712"/>
<path d="M1459.27 124.851H1422.45V161.676H1459.27V124.851Z" stroke="#0552B5" stroke-opacity="0.2" stroke-width="15.712"/>
<path d="M1447 137.126H1434.73V149.401H1447V137.126Z" stroke="#0552B5" stroke-opacity="0.2" stroke-width="15.712"/>
<path d="M1434.73 247.601H1348.8V333.526H1434.73V247.601Z" stroke="#0552B5" stroke-opacity="0.2" stroke-width="15.712"/>
<path d="M1422.45 259.876H1361.07V321.251H1422.45V259.876Z" stroke="#0552B5" stroke-opacity="0.2" stroke-width="15.712"/>
<path d="M1410.18 272.151H1373.35V308.976H1410.18V272.151Z" stroke="#0552B5" stroke-opacity="0.2" stroke-width="15.712"/>
<path d="M1397.9 284.426H1385.62V296.701H1397.9V284.426Z" stroke="#0552B5" stroke-opacity="0.2" stroke-width="15.712"/>
<path d="M1532.92 444.001H1447V529.926H1532.92V444.001Z" stroke="#0552B5" stroke-opacity="0.2" stroke-width="15.712"/>
<path d="M1532.92 -46.9992H1447V38.9258H1532.92V-46.9992Z" stroke="#0552B5" stroke-opacity="0.2" stroke-width="15.712"/>
<path d="M1041.92 444.001H956V529.926H1041.92V444.001Z" stroke="#0552B5" stroke-opacity="0.2" stroke-width="15.712"/>
</g>
</g>
<defs>
<clipPath id="clip0">
<rect width="491" height="491" fill="white" transform="translate(-26 -47)"/>
</clipPath>
<clipPath id="clip1">
<rect width="491" height="491" fill="white" transform="translate(465 -47)"/>
</clipPath>
<clipPath id="clip2">
<rect width="491" height="491" fill="white" transform="translate(956 -47)"/>
</clipPath>
</defs>
</svg>
